<svg width="60" height="160" viewBox="0 0 60 160" fill="none" xmlns="http://www.w3.org/2000/svg">
<path d="M10 5C10 2.23858 7.76142 0 5 0C2.23858 0 0 2.23858 0 5C0 7.76142 2.23858 10 5 10C7.76142 10 10 7.76142 10 5Z" fill="#D9D9D9"/>
<path d="M10 31C10 28.2386 7.76142 26 5 26C2.23858 26 0 28.2386 0 31C0 33.7614 2.23858 36 5 36C7.76142 36 10 33.7614 10 31Z" fill="#D9D9D9"/>
<path d="M10 57C10 54.2386 7.76142 52 5 52C2.23858 52 0 54.2386 0 57C0 59.7614 2.23858 62 5 62C7.76142 62 10 59.7614 10 57Z" fill="#D9D9D9"/>
<path d="M10 155C10 152.239 7.76142 150 5 150C2.23858 150 0 152.239 0 155C0 157.761 2.23858 160 5 160C7.76142 160 10 157.761 10 155Z" fill="#676767"/>
<path d="M3 140H7V77H3V140Z" fill="#676767"/>
<path d="M20 157H60V153H20V157Z" fill="#676767"/>
</svg>
