<svg width="60" height="160" viewBox="0 0 60 160" fill="none" xmlns="http://www.w3.org/2000/svg">
<path d="M10 155C10 157.761 7.76142 160 5 160C2.23858 160 0 157.761 0 155C0 152.239 2.23858 150 5 150C7.76142 150 10 152.239 10 155Z" fill="#D9D9D9"/>
<path d="M10 129C10 131.761 7.76142 134 5 134C2.23858 134 0 131.761 0 129C0 126.239 2.23858 124 5 124C7.76142 124 10 126.239 10 129Z" fill="#D9D9D9"/>
<path d="M10 103C10 105.761 7.76142 108 5 108C2.23858 108 0 105.761 0 103C0 100.239 2.23858 98 5 98C7.76142 98 10 100.239 10 103Z" fill="#D9D9D9"/>
<path d="M10 5C10 7.76142 7.76142 10 5 10C2.23858 10 0 7.76142 0 5C0 2.23858 2.23858 0 5 0C7.76142 0 10 2.23858 10 5Z" fill="#676767"/>
<path d="M3 20H7V83H3V20Z" fill="#676767"/>
<path d="M20 3H60V7H20V3Z" fill="#676767"/>
</svg>
